# xmcd
#
# Track frame offsets:
# 182
# 11997
# 28572
# 37072
# 47302
# 56632
# 68435
# 81070
# 93140
# 103132
# 113075
# 124615
# 135857
# 146717
# 157875
# 168597
# 180475
# 193305
# 201937
# 211535
#
# Disc length: 2993 seconds
#
# Revision: 3
# Processed by: cddbd v1.5.2PL0 Copyright (c) Steve Scherf et al.
# Submitted via: Axialis_AX_CDPlayer 2.6
#
DISCID=070baf14
DTITLE=Various Artist's - 20 Bluegras originals - Collector's Edition
DYEAR=1987
DGENRE=Bluegrass
TTITLE0=Roll In My Sweet Baby's Arms - Flatt and Scruggs
TTITLE1=Honey, You Don't Know My Mind - Jimmy Martin
TTITLE2=Dreaming - Kentucky Travelers
TTITLE3=Willow Garden - Charlie Monroe
TTITLE4=The Girl In The Blue Velvet Band - Hylo Brown
TTITLE5=I Know You're Married, But I Love You Still - Reno and Smiley
TTITLE6=She's Just A Cute Thing - Jimmy Martin and Bob Osborne
TTITLE7=I Still Write Your Name In The Sand - Mac Wiseman
TTITLE8=Eatin' Out Of Your Hand - Bill Harrell
TTITLE9=Down The Road - Lester Flatt
TTITLE10=Hard Hearted - Jim and Jesse
TTITLE11=Beautiful Blue Eyes - Red Allen
TTITLE12=Blue Ridge Mountain Blues - Bill Clifton
TTITLE13=New Freedom Bell - Country Gentlemen
TTITLE14=Windy Mountain - Lonesome Pine Fiddlers
TTITLE15=How Far To Little Rock - The Stanley Brothers
TTITLE16=Old Rattler - Grandpa Jones
TTITLE17=Me And The Juke Box - Buzz Bugsby
TTITLE18=Truck Driver's Queen - Moore and Napier
TTITLE19=Log Cabin In The Lane - Jim Eanes
EXTD=
EXTT0=
EXTT1=
EXTT2=
EXTT3=
EXTT4=
EXTT5=
EXTT6=
EXTT7=
EXTT8=
EXTT9=
EXTT10=
EXTT11=
EXTT12=
EXTT13=
EXTT14=
EXTT15=
EXTT16=
EXTT17=
EXTT18=
EXTT19=
PLAYORDER=
